<svg width="21" height="20" viewBox="0 0 21 20" fill="none" xmlns="http://www.w3.org/2000/svg">
<path d="M14.5 1H6.5C3.73858 1 1.5 3.23858 1.5 6V14C1.5 16.7614 3.73858 19 6.5 19H14.5C17.2614 19 19.5 16.7614 19.5 14V6C19.5 3.23858 17.2614 1 14.5 1Z" fill="#BDDBF3" stroke="#2185D5" stroke-width="2"/>
<path fill-rule="evenodd" clip-rule="evenodd" d="M11.3572 6.57143C11.3572 6.09805 10.9734 5.71429 10.5 5.71429C10.0266 5.71429 9.64287 6.09805 9.64287 6.57143V9.14286H7.07144C6.59805 9.14286 6.21429 9.52662 6.21429 10C6.21429 10.4734 6.59805 10.8571 7.07144 10.8571H9.64287V13.4286C9.64287 13.9019 10.0266 14.2857 10.5 14.2857C10.9734 14.2857 11.3572 13.9019 11.3572 13.4286V10.8571H13.9286C14.402 10.8571 14.7857 10.4734 14.7857 10C14.7857 9.52662 14.402 9.14286 13.9286 9.14286H11.3572V6.57143Z" fill="#2185D5"/>
</svg>
