<svg width="31" height="31" viewBox="0 0 31 31" fill="none" xmlns="http://www.w3.org/2000/svg">
<path d="M15.6841 28.697C23.1399 28.697 29.1841 22.6529 29.1841 15.197C29.1841 7.74118 23.1399 1.69702 15.6841 1.69702C8.22824 1.69702 2.18408 7.74118 2.18408 15.197C2.18408 22.6529 8.22824 28.697 15.6841 28.697Z" fill="#BDDBF3" stroke="#2185D5" stroke-width="3"/>
<path fill-rule="evenodd" clip-rule="evenodd" d="M16.9699 10.0542C16.9699 9.3441 16.3943 8.76846 15.6842 8.76846C14.9741 8.76846 14.3985 9.3441 14.3985 10.0542V13.9113H10.5413C9.83126 13.9113 9.25562 14.487 9.25562 15.197C9.25562 15.9071 9.83126 16.4828 10.5413 16.4828H14.3985V20.3399C14.3985 21.05 14.9741 21.6256 15.6842 21.6256C16.3943 21.6256 16.9699 21.05 16.9699 20.3399V16.4828H20.827C21.5371 16.4828 22.1128 15.9071 22.1128 15.197C22.1128 14.487 21.5371 13.9113 20.827 13.9113H16.9699V10.0542Z" fill="#2185D5"/>
</svg>
