<svg width="25" height="28" viewBox="0 0 25 28" fill="none" xmlns="http://www.w3.org/2000/svg">
<path fill-rule="evenodd" clip-rule="evenodd" d="M5.89149 0.74707C6.61979 0.74707 7.22967 1.29877 7.30242 2.02342L7.84034 7.38074H22.114C22.5581 7.36472 22.9994 7.45831 23.3989 7.65341C23.804 7.85127 24.1533 8.1472 24.4149 8.51432C24.6647 8.86039 24.8294 9.26069 24.895 9.68254C24.9608 10.1059 24.9252 10.5388 24.791 10.9457L24.7902 10.9479L22.449 17.9891L22.448 17.992C22.2597 18.5521 21.8935 19.0351 21.405 19.3673C20.9238 19.6944 20.3503 19.8575 19.7697 19.8331H8.70664C8.05624 19.839 7.42537 19.6104 6.92967 19.1892C6.43248 18.7666 6.10476 18.1785 6.00692 17.5333C6.00456 17.5177 6.00257 17.5019 6.00098 17.4862L5.0892 8.42067C5.08585 8.3874 5.08428 8.35414 5.08445 8.32101L4.60874 3.58311H1.49078C0.707623 3.58311 0.0727539 2.94824 0.0727539 2.16509C0.0727539 1.38194 0.707623 0.74707 1.49078 0.74707H5.89149ZM19.4091 22.6161C20.639 22.6161 21.6362 23.613 21.6362 24.8429C21.6362 26.0728 20.639 27.07 19.4091 27.07C18.1792 27.07 17.1822 26.0728 17.1822 24.8429C17.1822 23.613 18.1792 22.6161 19.4091 22.6161ZM11.9066 24.8429C11.9066 23.613 10.9096 22.6161 9.67966 22.6161C8.44975 22.6161 7.45271 23.613 7.45271 24.8429C7.45271 26.0728 8.44975 27.07 9.67966 27.07C10.9096 27.07 11.9066 26.0728 11.9066 24.8429ZM14.98 10.1733C14.3274 10.1733 13.7984 10.7023 13.7984 11.355V12.6534H12.4998C11.8472 12.6534 11.3181 13.1825 11.3181 13.8351C11.3181 14.4877 11.8472 15.0168 12.4998 15.0168H13.7984V16.3154C13.7984 16.968 14.3274 17.497 14.98 17.497C15.6327 17.497 16.1617 16.968 16.1617 16.3154V15.0168H17.4602C18.1128 15.0168 18.6419 14.4877 18.6419 13.8351C18.6419 13.1825 18.1128 12.6534 17.4602 12.6534H16.1617V11.355C16.1617 10.7023 15.6327 10.1733 14.98 10.1733Z" fill="white"/>
</svg>
