<svg width="34" height="34" viewBox="0 0 34 34" fill="none" xmlns="http://www.w3.org/2000/svg">
<g clip-path="url(#clip0_1671_2583)">
<path fill-rule="evenodd" clip-rule="evenodd" d="M3.55357 5.10714H6.44626L7.22949 8.09087C7.23566 8.1144 7.24235 8.13766 7.24952 8.16066L9.25651 18.1956C9.26152 18.2496 9.26943 18.3039 9.28031 18.3583L10.1503 22.7083L10.1515 22.7143C10.2709 23.299 10.5887 23.8248 11.0511 24.2022C11.5134 24.5796 12.0919 24.7857 12.6887 24.7857H25.3038C26.1618 24.7857 26.8574 24.0901 26.8574 23.2321C26.8574 22.3741 26.1618 21.6786 25.3038 21.6786H13.113L12.5952 19.0893H27.0674L27.0889 19.0896C27.1619 19.0909 27.3696 19.0945 27.56 19.0634C28.2541 18.95 28.8484 18.478 29.1252 17.8452C29.238 17.5872 29.2936 17.2619 29.3118 17.1556L29.3172 17.1246L30.9567 9.12656L30.9613 9.10504C31.0157 8.80702 31.0039 8.50064 30.9273 8.20755C30.6907 7.30431 29.8647 6.66415 28.9311 6.66071H28.9271H10.0665L9.37327 4.01993C9.24611 3.45576 8.93355 2.94982 8.48475 2.58347C8.02243 2.20606 7.44394 1.99995 6.84714 2H3.55357C2.69556 2 2 2.69556 2 3.55357C2 4.41158 2.69556 5.10714 3.55357 5.10714Z" fill="#8FBFFA"/>
<path fill-rule="evenodd" clip-rule="evenodd" d="M15.7323 28.5151C15.7323 27.201 14.667 26.1356 13.353 26.1356C12.0389 26.1356 10.9736 27.201 10.9736 28.5151C10.9736 29.829 12.0389 30.8943 13.353 30.8943C14.667 30.8943 15.7323 29.829 15.7323 28.5151ZM26.0895 28.5151C26.0895 27.201 25.0242 26.1356 23.7102 26.1356C22.3961 26.1356 21.3308 27.201 21.3308 28.5151C21.3308 29.8292 22.3961 30.8943 23.7102 30.8943C25.0242 30.8943 26.0895 29.8292 26.0895 28.5151Z" fill="#2859C5"/>
</g>
<rect x="14.5" y="0.5" width="19" height="19" rx="9.5" fill="#5E9EFF"/>
<rect x="14.5" y="0.5" width="19" height="19" rx="9.5" stroke="white"/>
<defs>
<clipPath id="clip0_1671_2583">
<rect width="29" height="29" fill="white" transform="translate(2 2)"/>
</clipPath>
</defs>
</svg>
