<svg width="34" height="34" viewBox="0 0 34 34" fill="none" xmlns="http://www.w3.org/2000/svg">
<g clip-path="url(#clip0_997_2923)">
<path opacity="0.3" d="M4.68915 15.5834L7.80582 26.9309L26.2083 26.9167L29.325 15.5834H4.68915ZM17 24.0834C15.4416 24.0834 14.1666 22.8084 14.1666 21.25C14.1666 19.6917 15.4416 18.4167 17 18.4167C18.5583 18.4167 19.8333 19.6917 19.8333 21.25C19.8333 22.8084 18.5583 24.0834 17 24.0834Z" fill="#5E9EFF"/>
<path d="M31.1667 12.75H24.3809L18.1759 3.45669C17.9067 3.06003 17.4534 2.86169 17 2.86169C16.5467 2.86169 16.0934 3.06003 15.8242 3.47086L9.61919 12.75H2.83335C2.05419 12.75 1.41669 13.3875 1.41669 14.1667C1.41669 14.2942 1.43085 14.4217 1.47335 14.5492L5.07169 27.6817C5.39752 28.8717 6.48835 29.75 7.79169 29.75H26.2084C27.5117 29.75 28.6025 28.8717 28.9425 27.6817L32.5409 14.5492L32.5834 14.1667C32.5834 13.3875 31.9459 12.75 31.1667 12.75ZM17 6.80003L20.9667 12.75H13.0334L17 6.80003ZM26.2084 26.9167L7.80585 26.9309L4.68919 15.5834H29.325L26.2084 26.9167ZM17 18.4167C15.4417 18.4167 14.1667 19.6917 14.1667 21.25C14.1667 22.8084 15.4417 24.0834 17 24.0834C18.5584 24.0834 19.8334 22.8084 19.8334 21.25C19.8334 19.6917 18.5584 18.4167 17 18.4167Z" fill="#5E9EFF"/>
</g>
<defs>
<clipPath id="clip0_997_2923">
<rect width="34" height="34" fill="white"/>
</clipPath>
</defs>
</svg>
