<svg width="20" height="21" viewBox="0 0 20 21" fill="none" xmlns="http://www.w3.org/2000/svg">
<path d="M19 15.178H3.5C3.36739 15.178 3.24021 15.1254 3.14645 15.0316C3.05268 14.9378 3 14.8106 3 14.678C3 14.5454 3.05268 14.4183 3.14645 14.3245C3.24021 14.2307 3.36739 14.178 3.5 14.178H16C16.2099 14.1781 16.4144 14.112 16.5847 13.9894C16.7549 13.8667 16.8823 13.6935 16.9487 13.4944L19.9487 4.49444C19.9987 4.34411 20.0123 4.18405 19.9884 4.02743C19.9645 3.87081 19.9037 3.72211 19.8111 3.59358C19.7184 3.46505 19.5966 3.36035 19.4556 3.2881C19.3146 3.21586 19.1584 3.17814 19 3.17804H4.5309L3.97 0.935339C3.91589 0.719037 3.79103 0.527025 3.61528 0.389813C3.43953 0.252602 3.22297 0.178062 3 0.17804H0V2.17804H2.2192L4.7192 12.178H3.5C2.83696 12.178 2.20107 12.4414 1.73223 12.9103C1.26339 13.3791 1 14.015 1 14.678C1 15.3411 1.26339 15.977 1.73223 16.4458C2.20107 16.9146 2.83696 17.178 3.5 17.178H4.0506C3.97638 17.5413 3.98389 17.9165 4.07258 18.2765C4.16126 18.6365 4.32891 18.9722 4.56337 19.2594C4.79783 19.5466 5.09323 19.7781 5.42818 19.9371C5.76313 20.096 6.12925 20.1785 6.5 20.1785C6.87075 20.1785 7.23687 20.096 7.57182 19.9371C7.90677 19.7781 8.20217 19.5466 8.43663 19.2594C8.67109 18.9722 8.83874 18.6365 8.92742 18.2765C9.01611 17.9165 9.02362 17.5413 8.9494 17.178H12.0506C11.9764 17.5413 11.9839 17.9165 12.0726 18.2765C12.1613 18.6365 12.3289 18.9722 12.5634 19.2594C12.7978 19.5466 13.0932 19.7781 13.4282 19.9371C13.7631 20.096 14.1292 20.1785 14.5 20.1785C14.8708 20.1785 15.2369 20.096 15.5718 19.9371C15.9068 19.7781 16.2022 19.5466 16.4366 19.2594C16.6711 18.9722 16.8387 18.6365 16.9274 18.2765C17.0161 17.9165 17.0236 17.5413 16.9494 17.178H19C19.2652 17.178 19.5196 17.0727 19.7071 16.8851C19.8946 16.6976 20 16.4433 20 16.178C20 15.9128 19.8946 15.6585 19.7071 15.4709C19.5196 15.2834 19.2652 15.178 19 15.178ZM5.0309 5.17804H17.6128L15.2793 12.178H6.7809L5.0309 5.17804ZM7 17.678C7 17.7769 6.97068 17.8736 6.91574 17.9558C6.86079 18.038 6.7827 18.1021 6.69134 18.14C6.59998 18.1778 6.49944 18.1877 6.40245 18.1684C6.30546 18.1491 6.21637 18.1015 6.14645 18.0316C6.07652 17.9617 6.0289 17.8726 6.00961 17.7756C5.99031 17.6786 6.00022 17.5781 6.03806 17.4867C6.0759 17.3953 6.13999 17.3172 6.22221 17.2623C6.30444 17.2074 6.40111 17.178 6.5 17.178C6.63261 17.178 6.75979 17.2307 6.85355 17.3245C6.94732 17.4183 7 17.5454 7 17.678ZM15 17.678C15 17.7769 14.9707 17.8736 14.9157 17.9558C14.8608 18.038 14.7827 18.1021 14.6913 18.14C14.6 18.1778 14.4994 18.1877 14.4025 18.1684C14.3055 18.1491 14.2164 18.1015 14.1464 18.0316C14.0765 17.9617 14.0289 17.8726 14.0096 17.7756C13.9903 17.6786 14.0002 17.5781 14.0381 17.4867C14.0759 17.3953 14.14 17.3172 14.2222 17.2623C14.3044 17.2074 14.4011 17.178 14.5 17.178C14.6326 17.178 14.7598 17.2307 14.8536 17.3245C14.9473 17.4183 15 17.5454 15 17.678Z" fill="black"/>
</svg>
