<svg width="33" height="33" viewBox="0 0 33 33" fill="none" xmlns="http://www.w3.org/2000/svg">
<g id="Circle Cancel">
<path id="Vector" d="M16.2001 0.800049C13.0356 0.800049 9.94214 1.73843 7.31096 3.49653C4.67977 5.25464 2.62901 7.75349 1.41801 10.6771C0.207006 13.6007 -0.109848 16.8178 0.507516 19.9215C1.12488 23.0252 2.64873 25.8761 4.88637 28.1138C7.12401 30.3514 9.97494 31.8752 13.0786 32.4926C16.1823 33.11 19.3994 32.7931 22.323 31.5821C25.2466 30.3711 27.7455 28.3204 29.5036 25.6892C31.2617 23.058 32.2001 19.9645 32.2001 16.8C32.1952 12.5581 30.508 8.49121 27.5085 5.49167C24.5089 2.49214 20.4421 0.804876 16.2001 0.800049ZM16.2001 29.6C13.6685 29.6 11.1937 28.8493 9.08878 27.4429C6.98383 26.0364 5.34322 24.0373 4.37442 21.6984C3.40562 19.3595 3.15214 16.7858 3.64603 14.3029C4.13992 11.8199 5.359 9.53919 7.14911 7.74908C8.93922 5.95897 11.22 4.73989 13.7029 4.246C16.1859 3.75211 18.7595 4.00559 21.0984 4.97439C23.4373 5.94319 25.4364 7.5838 26.8429 9.68875C28.2494 11.7937 29.0001 14.2684 29.0001 16.8C28.9962 20.1936 27.6464 23.4471 25.2467 25.8467C22.8471 28.2463 19.5937 29.5961 16.2001 29.6Z" fill="black"/>
<path id="Vector_2" d="M19.8689 10.8689L16.2001 14.5377L12.5313 10.8689L10.2689 13.1313L13.9377 16.8001L10.2689 20.4689L12.5313 22.7313L16.2001 19.0625L19.8689 22.7313L22.1313 20.4689L18.4625 16.8001L22.1313 13.1313L19.8689 10.8689Z" fill="black"/>
</g>
</svg>
