<svg width="12" height="10" viewBox="0 0 12 10" fill="none" xmlns="http://www.w3.org/2000/svg">
<path d="M12 2.65868V0.87002C12 0.71089 11.9368 0.558277 11.8243 0.445756C11.7117 0.333234 11.5591 0.27002 11.4 0.27002H0.6C0.44087 0.27002 0.288258 0.333234 0.175736 0.445756C0.0632141 0.558277 0 0.71089 0 0.87002V9.27002C0 9.42915 0.0632141 9.58176 0.175736 9.69428C0.288258 9.80681 0.44087 9.87002 0.6 9.87002H11.4C11.5591 9.87002 11.7117 9.80681 11.8243 9.69428C11.9368 9.58176 12 9.42915 12 9.27002V2.65868ZM10.8 1.47002V2.28002L6 4.41332L1.2 2.28002V1.47002H10.8ZM1.2 8.67002V3.59318L5.75628 5.61818C5.833 5.65236 5.91604 5.67002 6.00003 5.67002C6.08402 5.67002 6.16706 5.65236 6.24378 5.61818L10.8 3.59318V8.67002H1.2Z" fill="white"/>
</svg>
