<svg width="18" height="14" viewBox="0 0 18 14" fill="none" xmlns="http://www.w3.org/2000/svg">
<g id="visible--eye-eyeball-open-view">
<path id="Union" d="M9 0.656494C7.01434 0.656494 5.21473 1.53306 3.77061 2.57348C2.32128 3.61767 1.17389 4.86716 0.479301 5.70664L0.473503 5.71375C0.163318 6.09972 0 6.58883 0 7.08514C0 7.58144 0.163318 8.07057 0.473503 8.45654L0.479301 8.46365C1.17389 9.30312 2.32128 10.5526 3.77061 11.5968C5.21473 12.6372 7.01434 13.5138 9 13.5138C10.9857 13.5138 12.7853 12.6372 14.2294 11.5968C15.6788 10.5526 16.8261 9.30312 17.5207 8.46365L17.5265 8.45654C17.8367 8.07057 18 7.58144 18 7.08514C18 6.58883 17.8367 6.09972 17.5265 5.71375L17.5207 5.70664C16.8261 4.86716 15.6788 3.61767 14.2294 2.57348C12.7853 1.53306 10.9857 0.656494 9 0.656494Z" fill="#8FBFFA"/>
<path id="Ellipse 458" d="M9 9.97785C10.5977 9.97785 11.8929 8.68268 11.8929 7.085C11.8929 5.48731 10.5977 4.19214 9 4.19214C7.40232 4.19214 6.10715 5.48731 6.10715 7.085C6.10715 8.68268 7.40232 9.97785 9 9.97785Z" fill="#2859C5"/>
</g>
</svg>
