<svg width="18" height="19" viewBox="0 0 18 19" fill="none" xmlns="http://www.w3.org/2000/svg">
<g id="invisible-1--disable-eye-eyeball-hide-off-view">
<path id="Union" d="M9 2.70801C7.03031 2.70801 5.24517 3.57752 3.81267 4.60958C2.37498 5.64538 1.23683 6.88482 0.547819 7.71755L0.542068 7.72459C0.234376 8.10747 0.0723724 8.59265 0.0723724 9.08496C0.0723724 9.57728 0.234378 10.0625 0.542068 10.4453L0.547819 10.4524C1.23683 11.2851 2.37498 12.5246 3.81267 13.5604C5.24517 14.5924 7.03031 15.4619 9 15.4619C10.9697 15.4619 12.7548 14.5924 14.1874 13.5604C15.625 12.5246 16.7632 11.2851 17.4522 10.4524L17.458 10.4453C17.7656 10.0625 17.9276 9.57728 17.9276 9.08496C17.9276 8.59265 17.7656 8.10747 17.458 7.72459L17.4522 7.71755C16.7632 6.88482 15.625 5.64538 14.1874 4.60958C12.7548 3.57752 10.9697 2.70801 9 2.70801Z" fill="#8FBFFA"/>
<path id="Union_2" fill-rule="evenodd" clip-rule="evenodd" d="M0.338997 1.7875C-0.0375798 1.41092 -0.0375798 0.800367 0.338997 0.42379C0.715575 0.0472132 1.32613 0.0472132 1.7027 0.42379L7.75281 6.47391C8.13045 6.2932 8.5534 6.192 8.99998 6.192C10.5977 6.192 11.8928 7.48718 11.8928 9.08486C11.8928 9.53144 11.7916 9.95438 11.6109 10.332L17.6611 16.3822C18.0377 16.7588 18.0377 17.3692 17.6611 17.7458C17.2845 18.1224 16.6739 18.1224 16.2973 17.7458L0.338997 1.7875Z" fill="#2859C5"/>
</g>
</svg>
