<svg width="22" height="22" viewBox="0 0 22 22" fill="none" xmlns="http://www.w3.org/2000/svg">
<path d="M10.9999 1.87C5.95825 1.87 1.83325 5.98583 1.83325 11.055C1.83325 15.6383 5.18825 19.4425 9.56992 20.13V13.7133H7.24158V11.055H9.56992V9.02916C9.56992 6.72833 10.9358 5.46333 13.0349 5.46333C14.0341 5.46333 15.0791 5.6375 15.0791 5.6375V7.90166H13.9241C12.7874 7.90166 12.4299 8.6075 12.4299 9.33166V11.055H14.9782L14.5658 13.7133H12.4299V20.13C14.59 19.7889 16.5569 18.6867 17.9757 17.0226C19.3944 15.3584 20.1715 13.2418 20.1666 11.055C20.1666 5.98583 16.0416 1.87 10.9999 1.87V1.87Z" fill="white"/>
</svg>
