<svg width="14" height="14" viewBox="0 0 14 14" fill="none" xmlns="http://www.w3.org/2000/svg">
<path d="M11.1539 5.22391C11.1539 7.99315 7.00004 11.2239 7.00004 11.2239C7.00004 11.2239 2.84619 7.99315 2.84619 5.22391C2.84619 2.96145 4.73758 1.07007 7.00004 1.07007C9.2625 1.07007 11.1539 2.96145 11.1539 5.22391Z" stroke="white" stroke-linecap="round" stroke-linejoin="round"/>
<path d="M6.99961 6.60871C7.76431 6.60871 8.38422 5.9888 8.38422 5.22409C8.38422 4.45939 7.76431 3.83948 6.99961 3.83948C6.2349 3.83948 5.61499 4.45939 5.61499 5.22409C5.61499 5.9888 6.2349 6.60871 6.99961 6.60871Z" stroke="white" stroke-linecap="round" stroke-linejoin="round"/>
<path d="M10.7637 9.83948H11.6154L13 13.0702H1L2.38462 9.83948H3.23634" stroke="white" stroke-linecap="round" stroke-linejoin="round"/>
</svg>
