<svg width="18" height="16" viewBox="0 0 18 16" fill="none" xmlns="http://www.w3.org/2000/svg">
<g id="mail-send-envelope--envelope-email-message-unopened-sealed-close">
<path id="Union" fill-rule="evenodd" clip-rule="evenodd" d="M1.92857 0.522217C0.863451 0.522217 0 1.38566 0 2.45079V13.3794C0 14.4444 0.863451 15.3079 1.92857 15.3079H16.0714C17.1365 15.3079 18 14.4444 18 13.3794V2.45079C18 1.38566 17.1365 0.522217 16.0714 0.522217H1.92857Z" fill="#8FBFFA"/>
<path id="Intersect" fill-rule="evenodd" clip-rule="evenodd" d="M18 2.89038L9.49296 8.56275C9.37296 8.6399 9.19881 8.69497 9 8.69497C8.80119 8.69497 8.62704 8.6399 8.50704 8.56275L0 2.89038V4.82204L7.61988 9.90291L7.62733 9.90776C8.0319 10.1711 8.51768 10.3021 9 10.3021C9.48232 10.3021 9.96814 10.1711 10.3727 9.90781L18 4.82202V2.89038Z" fill="#2859C5"/>
</g>
</svg>
