<svg width="38" height="39" viewBox="0 0 38 39" fill="none" xmlns="http://www.w3.org/2000/svg">
<g id="notification" clip-path="url(#clip0_1267_3145)">
<path id="Vector" opacity="0.3" d="M18.8658 10.5719C14.9609 10.5719 12.593 13.7397 12.593 17.6288V27.038H25.1385V17.6288C25.1385 13.7397 22.7706 10.5719 18.8658 10.5719Z" fill="#2185D5"/>
<path id="Vector_2" d="M18.8658 34.879C20.5908 34.879 22.0021 33.4676 22.0021 31.7426H15.7294C15.7294 33.4676 17.1407 34.879 18.8658 34.879ZM28.2749 25.4698V17.6288C28.2749 12.8145 25.7188 8.78418 21.218 7.71781V6.65143C21.218 5.34983 20.1674 4.29913 18.8658 4.29913C17.5641 4.29913 16.5135 5.34983 16.5135 6.65143V7.71781C12.0284 8.78418 9.45656 12.7988 9.45656 17.6288V25.4698L6.32016 28.6062V30.1744H31.4113V28.6062L28.2749 25.4698ZM25.1385 27.038H12.593V17.6288C12.593 13.7397 14.9609 10.5719 18.8658 10.5719C22.7706 10.5719 25.1385 13.7397 25.1385 17.6288V27.038Z" fill="#2185D5"/>
</g>
<defs>
<clipPath id="clip0_1267_3145">
<rect width="37.6368" height="37.6368" fill="white" transform="translate(0.0473633 0.378601)"/>
</clipPath>
</defs>
</svg>
