<svg width="36" height="36" viewBox="0 0 36 36" fill="none" xmlns="http://www.w3.org/2000/svg">
<g clip-path="url(#clip0_1932_4020)">
<path d="M18 9.75C14.265 9.75 12 12.78 12 16.5V25.5H24V16.5C24 12.78 21.735 9.75 18 9.75Z" fill="#CFE2FF"/>
<path d="M18 33C19.65 33 21 31.65 21 30H15C15 31.65 16.35 33 18 33ZM27 24V16.5C27 11.895 24.555 8.04 20.25 7.02V6C20.25 4.755 19.245 3.75 18 3.75C16.755 3.75 15.75 4.755 15.75 6V7.02C11.46 8.04 9 11.88 9 16.5V24L6 27V28.5H30V27L27 24ZM24 25.5H12V16.5C12 12.78 14.265 9.75 18 9.75C21.735 9.75 24 12.78 24 16.5V25.5Z" fill="#5D9EFF"/>
</g>
<defs>
<clipPath id="clip0_1932_4020">
<rect width="36" height="36" fill="white"/>
</clipPath>
</defs>
</svg>
