<svg width="25" height="25" viewBox="0 0 25 25" fill="none" xmlns="http://www.w3.org/2000/svg">
<g clip-path="url(#clip0_1553_5502)">
<path fill-rule="evenodd" clip-rule="evenodd" d="M6.4612 0.47522C7.134 0.47522 7.69741 0.984887 7.76462 1.65432L8.26156 6.60344H21.4476C21.8579 6.58864 22.2656 6.6751 22.6346 6.85534C23.0089 7.03812 23.3315 7.3115 23.5733 7.65065C23.804 7.97035 23.9561 8.34015 24.0167 8.72985C24.0775 9.12094 24.0447 9.52089 23.9207 9.89678L23.92 9.89882L21.7571 16.4035L21.7562 16.4062C21.5823 16.9236 21.2439 17.3698 20.7926 17.6767C20.3481 17.9788 19.8183 18.1296 19.282 18.107H9.06185C8.461 18.1125 7.87821 17.9013 7.42027 17.5121C6.96096 17.1217 6.65822 16.5784 6.56783 15.9824C6.56565 15.968 6.56381 15.9534 6.56235 15.9389L5.72003 7.56414C5.71694 7.53339 5.71549 7.50267 5.71565 7.47207L5.27618 3.09517H2.3958C1.67231 3.09517 1.08582 2.50867 1.08582 1.78519C1.08582 1.06171 1.67231 0.47522 2.3958 0.47522H6.4612ZM18.9489 20.6779C20.0851 20.6779 21.0062 21.5989 21.0062 22.7351C21.0062 23.8713 20.0851 24.7924 18.9489 24.7924C17.8127 24.7924 16.8916 23.8713 16.8916 22.7351C16.8916 21.5989 17.8127 20.6779 18.9489 20.6779ZM12.018 22.7351C12.018 21.5989 11.0969 20.6779 9.96073 20.6779C8.82453 20.6779 7.90346 21.5989 7.90346 22.7351C7.90346 23.8713 8.82453 24.7924 9.96073 24.7924C11.0969 24.7924 12.018 23.8713 12.018 22.7351ZM17.791 11.0886C18.1524 10.606 18.0543 9.92184 17.5718 9.56039C17.0893 9.19893 16.4051 9.29707 16.0436 9.77961L13.7927 12.7844L12.7272 11.9862C12.2446 11.6248 11.5604 11.7229 11.199 12.2055C10.8375 12.688 10.9357 13.3722 11.4182 13.7336L13.3575 15.1863C13.5892 15.3599 13.8804 15.4343 14.167 15.3932C14.4536 15.3521 14.7121 15.1988 14.8856 14.9671L17.791 11.0886Z" fill="black"/>
</g>
<defs>
<clipPath id="clip0_1553_5502">
<rect width="24.4528" height="24.4528" fill="white" transform="translate(0.3396 0.33963)"/>
</clipPath>
</defs>
</svg>
