<svg width="18" height="19" viewBox="0 0 18 19" fill="none" xmlns="http://www.w3.org/2000/svg">
<g id="mail">
<path id="Vector 1169 (Stroke)" fill-rule="evenodd" clip-rule="evenodd" d="M8.99998 2.65639C7.1925 2.65639 5.72724 3.80766 5.72724 5.22782V7.15639C5.72724 7.86646 4.99461 8.4421 4.09087 8.4421C3.18714 8.4421 2.45451 7.86646 2.45451 7.15639V5.22782C2.45451 2.3875 5.38501 0.0849609 8.99998 0.0849609C12.6149 0.0849609 15.5455 2.3875 15.5455 5.22782V7.15639C15.5455 7.86646 14.8128 8.4421 13.9091 8.4421C13.0053 8.4421 12.2727 7.86646 12.2727 7.15639V5.22782C12.2727 3.80766 10.8075 2.65639 8.99998 2.65639Z" fill="#2859C5"/>
<path id="Rectangle 446" d="M0 8.442C0 7.37687 1.09894 6.51343 2.45455 6.51343H15.5454C16.9012 6.51343 18 7.37687 18 8.442V16.1563C18 17.2214 16.9012 18.0849 15.5454 18.0849H2.45455C1.09894 18.0849 0 17.2214 0 16.1563V8.442Z" fill="#8FBFFA"/>
<path id="Ellipse 367" d="M8.99997 13.9064C10.1297 13.9064 11.0454 13.1869 11.0454 12.2993C11.0454 11.4117 10.1297 10.6921 8.99997 10.6921C7.8703 10.6921 6.95451 11.4117 6.95451 12.2993C6.95451 13.1869 7.8703 13.9064 8.99997 13.9064Z" fill="#2859C5"/>
</g>
</svg>
