<svg width="12" height="6" viewBox="0 0 12 6" fill="none" xmlns="http://www.w3.org/2000/svg">
<path d="M11.7356 2.57358C10.0876 1.34388 8.08788 0.676665 6.03168 0.670454C3.97548 0.664243 1.97178 1.31936 0.316404 2.53908C0.242422 2.57864 0.177578 2.6333 0.126078 2.69953C0.0745782 2.76575 0.0375722 2.84206 0.0174594 2.92351C-0.00265335 3.00496 -0.0054237 3.08972 0.00932781 3.17231C0.0240793 3.25489 0.0560233 3.33346 0.103089 3.4029L1.30284 5.20253C1.39109 5.33489 1.52831 5.42678 1.68431 5.45797C1.84031 5.48917 2.00232 5.45712 2.13469 5.36887L3.93431 4.16912C4.03316 4.10328 4.11022 4.00955 4.1557 3.89982C4.20118 3.7901 4.21302 3.66934 4.18974 3.55287L3.90828 2.14119C5.28016 1.78006 6.72214 1.78006 8.09403 2.14119L7.81238 3.55233C7.78912 3.66884 7.80097 3.78964 7.84644 3.89941C7.89192 4.00917 7.96896 4.10296 8.06781 4.16888L9.86744 5.36863C9.99981 5.45688 10.1618 5.48893 10.3178 5.45773C10.4738 5.42654 10.611 5.33465 10.6993 5.20229L11.899 3.40266C11.9871 3.27098 12.0193 3.10975 11.9887 2.95433C11.9581 2.7989 11.867 2.66198 11.7356 2.57358ZM2.93462 3.3933L1.96798 4.03769L1.42881 3.22864C1.84969 2.95232 2.29591 2.71669 2.76144 2.52493L2.93462 3.3933ZM10.0335 4.03769L9.0669 3.3933L9.24027 2.52493C9.70587 2.71641 10.1521 2.95201 10.5728 3.22852L10.0335 4.03769Z" fill="white"/>
</svg>
