<svg width="18" height="19" viewBox="0 0 18 19" fill="none" xmlns="http://www.w3.org/2000/svg">
<g id="user-single-neutral-male--close-geometric-human-person-single-up-user-male">
<path id="Union" d="M8.99971 11.7451C7.09593 11.7451 5.24132 12.3497 3.70328 13.4717C2.16523 14.5936 1.0232 16.175 0.441845 17.9879C0.379138 18.1835 0.413619 18.3971 0.534638 18.563C0.655656 18.729 0.848647 18.8271 1.05399 18.8271H16.9454C17.1507 18.8271 17.3437 18.729 17.4648 18.563C17.5858 18.3971 17.6203 18.1835 17.5575 17.9879C16.9762 16.175 15.8341 14.5936 14.2962 13.4717C12.7581 12.3497 10.9035 11.7451 8.99971 11.7451Z" fill="#2859C5"/>
<path id="Union_2" d="M8.99988 0.833008C5.6412 0.833008 2.91846 3.55575 2.91846 6.91444C2.91846 10.2731 5.6412 12.9959 8.99988 12.9959C12.3586 12.9959 15.0813 10.2731 15.0813 6.91444C15.0813 3.55575 12.3586 0.833008 8.99988 0.833008Z" fill="#8FBFFA"/>
<path id="Union_3" fill-rule="evenodd" clip-rule="evenodd" d="M3.21111 5.0793C4.00236 2.639 6.29394 0.873291 8.99961 0.873291C11.9644 0.873291 14.4325 2.99324 14.9736 5.79971C15.0097 5.98731 14.9606 6.18129 14.8395 6.32901C14.7182 6.47676 14.5377 6.56295 14.3467 6.56422L14.3059 6.56436C12.7785 6.56436 11.3851 5.98817 10.3322 5.04264C9.27923 5.9882 7.8858 6.5644 6.35841 6.5644C5.32981 6.5644 4.36038 6.30281 3.51497 5.84204C3.24338 5.694 3.11571 5.37354 3.21111 5.0793ZM6.8593 8.02485C7.25494 7.82377 7.73866 7.9815 7.93973 8.37714C8.05677 8.60742 8.42946 8.84413 9.00009 8.84413C9.57071 8.84413 9.94342 8.60742 10.0604 8.37714C10.2615 7.9815 10.7452 7.82377 11.1409 8.02485C11.5365 8.22591 11.6943 8.70964 11.4932 9.10527C10.996 10.0836 9.89906 10.4513 9.00009 10.4513C8.10112 10.4513 7.00422 10.0836 6.507 9.10527C6.30594 8.70963 6.46366 8.22591 6.8593 8.02485Z" fill="#2859C5"/>
</g>
</svg>
